<svg xmlns="http://www.w3.org/2000/svg" width="56" height="32" viewBox="0 0 56 32">
  <g id="layer1" transform="translate(-55.5 -1015)">
    <path id="path3078" d="M55.5,1014.35h56v17.675l-2.772,4.189,2.772,3.728v6.407h-56v-16.964l1.732-1.927-1.732-1.843Z" transform="translate(0 0.65)" fill="#016fd0"/>
    <path id="path3082" d="M249.14,1549.433v-8.6h9.309l1,1.274,1.032-1.274h33.79v8.009a3.958,3.958,0,0,1-1.906.593h-18.71l-1.126-1.356v1.356h-3.69v-2.315a3.149,3.149,0,0,1-1.594.323h-1.256v1.992H260.4l-1-1.3-1.013,1.3Z" transform="translate(-182.77 -508.444)" fill="#fff"/>
    <path id="path3080" d="M55.5,1340.411l2.1-4.788h3.63l1.191,2.682v-2.682h4.513l.709,1.939.688-1.939H88.589v.974a4.422,4.422,0,0,1,2.815-.974l6.573.022,1.171,2.647v-2.67h3.777l1.039,1.521v-1.521h3.811v8.6h-3.811l-1-1.525v1.525H97.419l-.558-1.356H95.369l-.549,1.356H91.057a3.757,3.757,0,0,1-2.469-.955v.955H82.915l-1.126-1.356v1.356h-21.1l-.558-1.356H58.647l-.554,1.356H55.5Z" transform="translate(0 -314.508)" fill="#fff"/>
    <path id="path3046" d="M58.524,1354.93l-2.831,6.441h1.843l.522-1.29H61.1l.52,1.29H63.5l-2.829-6.441Zm1.048,1.5.926,2.254H58.643Z" transform="translate(-0.182 -332.754)" fill="#016fd0"/>
    <path id="path3048" d="M198.223,1361.347v-6.441l2.62.01,1.524,4.153,1.487-4.162h2.6v6.441h-1.646V1356.6l-1.745,4.746h-1.443l-1.749-4.746v4.746Z" transform="translate(-134.711 -332.731)" fill="#016fd0"/>
    <path id="path3050" d="M364.861,1361.347v-6.441h5.37v1.441h-3.707v1.1h3.621v1.356h-3.621v1.144h3.707v1.4Z" transform="translate(-291.994 -332.731)" fill="#016fd0"/>
    <path id="path3052" d="M477.5,1354.93v6.441h1.646v-2.288h.693l1.973,2.288h2.011L481.655,1359a1.979,1.979,0,0,0,1.805-1.978,2.111,2.111,0,0,0-2.3-2.09Zm1.646,1.441h1.881a.749.749,0,0,1,.78.678.738.738,0,0,1-.755.678h-1.906Z" transform="translate(-398.307 -332.754)" fill="#016fd0"/>
    <path id="path3054" d="M597.367,1361.347h-1.68v-6.441h1.68Z" transform="translate(-509.861 -332.731)" fill="#016fd0"/>
    <path id="path3056" d="M643.076,1361.347h-.363c-1.755,0-2.821-1.353-2.821-3.194a2.982,2.982,0,0,1,3.27-3.247h1.819v1.526H643.1a1.562,1.562,0,0,0-1.536,1.737,1.6,1.6,0,0,0,1.776,1.771h.433Z" transform="translate(-551.586 -332.731)" fill="#016fd0"/>
    <path id="path3058" d="M712.783,1354.93l-2.831,6.441H711.8l.522-1.29h3.037l.52,1.29h1.884l-2.829-6.441Zm1.048,1.5.926,2.254H712.9Z" transform="translate(-617.712 -332.754)" fill="#016fd0"/>
    <path id="path3060" d="M852.433,1361.347v-6.441h2.092l2.672,4.047v-4.047h1.646v6.441h-2.025l-2.739-4.153v4.153Z" transform="translate(-752.194 -332.731)" fill="#016fd0"/>
    <path id="path3062" d="M269.2,1566.567v-6.441h5.37v1.441h-3.707v1.1h3.621v1.356h-3.621v1.144h3.707v1.4Z" transform="translate(-201.879 -526.68)" fill="#016fd0"/>
    <path id="path3064" d="M737.947,1566.567v-6.441h5.37v1.441H739.61v1.1h3.6v1.356h-3.6v1.144h3.707v1.4Z" transform="translate(-644.313 -526.68)" fill="#016fd0"/>
    <path id="path3066" d="M367.527,1566.566l2.615-3.181-2.677-3.26h2.073l1.594,2.015,1.6-2.015h1.992l-2.642,3.22,2.62,3.22h-2.073l-1.548-1.984-1.51,1.984Z" transform="translate(-294.63 -526.679)" fill="#016fd0"/>
    <path id="path3068" d="M499.869,1560.14v6.441h1.689v-2.034h1.732c1.466,0,2.577-.761,2.577-2.24a2.146,2.146,0,0,0-2.363-2.166Zm1.689,1.457h1.824a.736.736,0,0,1,.812.742.752.752,0,0,1-.818.741h-1.819Z" transform="translate(-419.6 -526.693)" fill="#016fd0"/>
    <path id="path3072" d="M619.448,1560.12v6.441h1.646v-2.288h.693l1.973,2.288h2.011l-2.165-2.373a1.979,1.979,0,0,0,1.805-1.978,2.111,2.111,0,0,0-2.3-2.09Zm1.646,1.441h1.881a.749.749,0,0,1,.78.678.738.738,0,0,1-.755.678h-1.906Z" transform="translate(-532.466 -526.674)" fill="#016fd0"/>
    <path id="path3074" d="M843.674,1566.566v-1.4h3.294c.487,0,.7-.258.7-.54s-.21-.544-.7-.544h-1.488a1.821,1.821,0,0,1-2.014-1.929c0-1.033.66-2.029,2.582-2.029h3.2l-.693,1.449h-2.772c-.53,0-.693.272-.693.532a.568.568,0,0,0,.606.561h1.559c1.442,0,2.068.8,2.068,1.849a1.953,1.953,0,0,1-2.147,2.05Z" transform="translate(-743.907 -526.679)" fill="#016fd0"/>
    <path id="path3076" d="M951.271,1566.566v-1.4h3.294c.487,0,.7-.258.7-.54s-.21-.544-.7-.544h-1.488a1.821,1.821,0,0,1-2.014-1.929c0-1.033.66-2.029,2.582-2.029h3.2l-.693,1.449h-2.772c-.53,0-.693.272-.693.532a.568.568,0,0,0,.606.561h1.559c1.442,0,2.068.8,2.068,1.849a1.953,1.953,0,0,1-2.147,2.05Z" transform="translate(-845.463 -526.679)" fill="#016fd0"/>
  </g>
</svg>
