<svg xmlns="http://www.w3.org/2000/svg" width="53" height="32" viewBox="0 0 53 32">
  <g id="layer1" transform="translate(-1551.785 -2007.046)">
    <g id="g13" transform="translate(1551.785 2007.046)">
      <g id="XMLID_328_" transform="translate(0 0)">
        <rect id="rect19" width="14.33" height="25.156" transform="translate(19.335 3.422)" fill="#ff5f00"/>
        <path id="XMLID_330_" d="M2918.979,2255.5a15.911,15.911,0,0,1,6.233-12.578,16.523,16.523,0,0,0-10.1-3.422,16,16,0,1,0,0,32,16.523,16.523,0,0,0,10.1-3.422A15.845,15.845,0,0,1,2918.979,2255.5Z" transform="translate(-2898.734 -2239.502)" fill="#eb001b"/>
        <path id="path22" d="M3425.645,2255.5a16.182,16.182,0,0,1-16.377,16,16.523,16.523,0,0,1-10.1-3.422,15.808,15.808,0,0,0,0-25.156,16.523,16.523,0,0,1,10.1-3.422A16.21,16.21,0,0,1,3425.645,2255.5Z" transform="translate(-3372.645 -2239.502)" fill="#f79e1b"/>
      </g>
    </g>
  </g>
</svg>
