<svg xmlns="http://www.w3.org/2000/svg" width="115.399" height="116.966" viewBox="0 0 115.399 116.966">
  <path id="curved-arrow_1_" data-name="curved-arrow (1)" d="M75.694,102a27.394,27.394,0,0,1-7.318-1.191C56.8,97.4,37.574,83.446,36.553,30.349l-9.87,9.871L24.3,37.837,38.255,23.882,52.21,37.837,49.827,40.22l-9.87-9.871c1.021,52.756,20.762,64.5,29.271,67.051a37.627,37.627,0,0,0,4.255.851c-.511-1.191-.851-2.212-1.191-3.063-2.553-9.7,2.893-19.4,9.53-22.8C87.1,69.661,92.713,71.023,97.137,76.3c3.914,4.595,4.084,10.211.681,15.486-3.233,4.935-9.87,9.19-17.7,10.211,5.786,5.616,16.337,8.509,30.462,8l.17,3.4c-20.932.511-30.632-5.616-35.057-11.4Zm19.06-12.253a9.131,9.131,0,0,0-.34-11.4c-3.233-3.914-7.148-4.935-11.062-3.063-5.446,2.723-9.7,11.062-7.658,19.06a14.732,14.732,0,0,0,1.7,4.084c7.658-.17,14.3-3.914,17.358-8.679Z" transform="matrix(0.914, -0.407, 0.407, 0.914, -31.913, 23.229)" fill="#fff"/>
</svg>
