<svg xmlns="http://www.w3.org/2000/svg" width="23" height="23" viewBox="0 0 23 23">
  <path id="Path_1663" data-name="Path 1663" d="M7.976,3.152A4.841,4.841,0,0,0,3.152,8c0,2.457,1.277,5.261,3.795,8.332a54.732,54.732,0,0,0,5.905,5.929,54.741,54.741,0,0,0,5.905-5.929c2.518-3.071,3.795-5.874,3.795-8.332a4.841,4.841,0,0,0-4.824-4.846c-1.722,0-2.348.53-3.354,2.123L12.852,7.684,11.331,5.275C10.324,3.682,9.7,3.152,7.976,3.152m0-1.8c2.552,0,3.68,1.068,4.876,2.961,1.2-1.893,2.324-2.961,4.876-2.961A6.635,6.635,0,0,1,24.352,8c0,3.433-1.957,6.734-4.2,9.473a57.789,57.789,0,0,1-6.35,6.355l-.324.288a.935.935,0,0,1-1.245,0l-.324-.288a57.782,57.782,0,0,1-6.35-6.355c-2.246-2.739-4.2-6.04-4.2-9.473A6.635,6.635,0,0,1,7.976,1.352Z" transform="translate(-1.352 -1.353)" fill="#182427"/>
</svg>
