<svg xmlns="http://www.w3.org/2000/svg" width="26.833" height="23" viewBox="0 0 26.833 23">
  <path id="Path_4969" data-name="Path 4969" d="M22.361,3.769H4.472A2.669,2.669,0,0,0,1.789,6.423v8.846a2.669,2.669,0,0,0,2.683,2.654h8.944a.9.9,0,0,1,.632.259l3.84,3.8V18.808a.89.89,0,0,1,.894-.885h3.578a2.669,2.669,0,0,0,2.683-2.654V6.423A2.669,2.669,0,0,0,22.361,3.769ZM4.472,2H22.361a4.448,4.448,0,0,1,4.472,4.423v8.846a4.448,4.448,0,0,1-4.472,4.423H19.678v4.423a.884.884,0,0,1-.552.817.9.9,0,0,1-.975-.192l-5.1-5.049H4.472A4.448,4.448,0,0,1,0,15.269V6.423A4.448,4.448,0,0,1,4.472,2Z" transform="translate(0 -2)" fill="#182427" fill-rule="evenodd"/>
</svg>
