<svg id="Group_63801" data-name="Group 63801" xmlns="http://www.w3.org/2000/svg" xmlns:xlink="http://www.w3.org/1999/xlink" width="24" height="27" viewBox="0 0 24 27">
  <defs>
    <clipPath id="clip-path">
      <rect id="Rectangle_10065" data-name="Rectangle 10065" width="24" height="27" fill="none"/>
    </clipPath>
  </defs>
  <g id="Group_63800" data-name="Group 63800" transform="translate(0 0)" clip-path="url(#clip-path)">
    <path id="Path_4971" data-name="Path 4971" d="M20.97,9.248H17.389a1.129,1.129,0,0,0,.286-.761V1.241A1.114,1.114,0,0,0,16.576.1H9.623a1.043,1.043,0,0,0-.758.315L5.493,2.881a1.168,1.168,0,0,0-.637,1.032V9.248a1.036,1.036,0,0,0-.747.315L.737,12.03A1.148,1.148,0,0,0,.1,13.062V20.69A1.128,1.128,0,0,0,1.2,21.83H8.887a1.083,1.083,0,0,0,.736-.293,1.057,1.057,0,0,0,.725.293h2.186a4.4,4.4,0,0,1,0-.761H10.348a.375.375,0,0,1-.362-.38V13.062a.368.368,0,0,1,.362-.38h7.689a.378.378,0,0,1,.373.38v2.575a4.073,4.073,0,0,1,.725.054V13.062a1.115,1.115,0,0,0-.1-.467l2.3-2.1V16.43a4.749,4.749,0,0,1,.582.369,1.635,1.635,0,0,1,.154.13V10.389a1.128,1.128,0,0,0-1.1-1.141M9.316,1.013A.193.193,0,0,0,9.37.969.359.359,0,0,1,9.623.861h2.592L9.865,2.773H6.921ZM4.56,10.172c.011-.022.033-.033.044-.054a.359.359,0,0,1,.253-.109V11.53a1.108,1.108,0,0,0,.066.38H2.165ZM9.25,20.69a.335.335,0,0,1-.11.261v.011a.359.359,0,0,1-.253.109H1.2a.368.368,0,0,1-.362-.38V13.062a.362.362,0,0,1,.362-.38H8.887a.362.362,0,0,1,.362.38Zm4.767-9.148a.377.377,0,0,1-.11.261l-.011.011a.359.359,0,0,1-.253.109H5.954a.383.383,0,0,1-.362-.38V3.914a.368.368,0,0,1,.362-.38h7.689a.378.378,0,0,1,.373.38Zm-.373-8.768H11.051L13.4.861h2.966L14.138,2.9a.988.988,0,0,0-.494-.13m1,.674,2.3-2.1V8.488a.335.335,0,0,1-.11.261l-2.087,2.173V3.914a1.115,1.115,0,0,0-.1-.467m3.888,8.594a1.1,1.1,0,0,0-.494-.12H14.83l1.834-1.912h4.1Z" transform="translate(0.01 0.009)" fill="#22292b"/>
    <path id="Path_4972" data-name="Path 4972" d="M20.97,9.248H17.389a1.129,1.129,0,0,0,.286-.761V1.241A1.114,1.114,0,0,0,16.576.1H9.623a1.043,1.043,0,0,0-.758.315L5.493,2.881a1.168,1.168,0,0,0-.637,1.032V9.248a1.036,1.036,0,0,0-.747.315L.737,12.03A1.148,1.148,0,0,0,.1,13.062V20.69A1.128,1.128,0,0,0,1.2,21.83H8.887a1.083,1.083,0,0,0,.736-.293,1.057,1.057,0,0,0,.725.293h2.186a4.4,4.4,0,0,1,0-.761H10.348a.375.375,0,0,1-.362-.38V13.062a.368.368,0,0,1,.362-.38h7.689a.378.378,0,0,1,.373.38v2.575a4.073,4.073,0,0,1,.725.054V13.062a1.115,1.115,0,0,0-.1-.467l2.3-2.1V16.43a4.749,4.749,0,0,1,.582.369,1.635,1.635,0,0,1,.154.13V10.389A1.128,1.128,0,0,0,20.97,9.248ZM9.316,1.013A.193.193,0,0,0,9.37.969.359.359,0,0,1,9.623.861h2.592L9.865,2.773H6.921ZM4.56,10.172c.011-.022.033-.033.044-.054a.359.359,0,0,1,.253-.109V11.53a1.108,1.108,0,0,0,.066.38H2.165ZM9.25,20.69a.335.335,0,0,1-.11.261v.011a.359.359,0,0,1-.253.109H1.2a.368.368,0,0,1-.362-.38V13.062a.362.362,0,0,1,.362-.38H8.887a.362.362,0,0,1,.362.38Zm4.767-9.148a.377.377,0,0,1-.11.261l-.011.011a.359.359,0,0,1-.253.109H5.954a.383.383,0,0,1-.362-.38V3.914a.368.368,0,0,1,.362-.38h7.689a.378.378,0,0,1,.373.38Zm-.373-8.768H11.051L13.4.861h2.966L14.138,2.9A.988.988,0,0,0,13.643,2.773Zm1,.674,2.3-2.1V8.488a.335.335,0,0,1-.11.261l-2.087,2.173V3.914A1.115,1.115,0,0,0,14.643,3.446Zm3.888,8.594a1.1,1.1,0,0,0-.494-.12H14.83l1.834-1.912h4.1Z" transform="translate(0.01 0.009)" fill="none" stroke="#22292b" stroke-width="0.5"/>
    <path id="Path_4973" data-name="Path 4973" d="M7.967,8.17H6.495a.744.744,0,0,0-.725.761v.761a.744.744,0,0,0,.725.761H7.967a.744.744,0,0,0,.725-.761V8.931a.744.744,0,0,0-.725-.761m0,1.521H6.495V8.931H7.967Z" transform="translate(0.568 0.707)" fill="#22292b"/>
    <path id="Path_4974" data-name="Path 4974" d="M7.967,8.17H6.495a.744.744,0,0,0-.725.761v.761a.744.744,0,0,0,.725.761H7.967a.744.744,0,0,0,.725-.761V8.931A.744.744,0,0,0,7.967,8.17Zm0,1.521H6.495V8.931H7.967Z" transform="translate(0.568 0.707)" fill="none" stroke="#22292b" stroke-width="0.2"/>
    <path id="Path_4975" data-name="Path 4975" d="M11.9,8.169H10.8a.381.381,0,0,0,0,.761h1.1a.381.381,0,0,0,0-.761" transform="translate(1.027 0.707)" fill="#22292b"/>
    <path id="Path_4976" data-name="Path 4976" d="M11.9,8.169H10.8a.381.381,0,0,0,0,.761h1.1a.381.381,0,0,0,0-.761Z" transform="translate(1.027 0.707)" fill="none" stroke="#22292b" stroke-width="0.2"/>
    <path id="Path_4977" data-name="Path 4977" d="M11.9,9.573H10.8a.381.381,0,0,0,0,.761h1.1a.381.381,0,0,0,0-.761" transform="translate(1.027 0.828)" fill="#22292b"/>
    <path id="Path_4978" data-name="Path 4978" d="M11.9,9.573H10.8a.381.381,0,0,0,0,.761h1.1a.381.381,0,0,0,0-.761Z" transform="translate(1.027 0.828)" fill="none" stroke="#22292b" stroke-width="0.2"/>
    <path id="Path_4979" data-name="Path 4979" d="M3.627,16.59H2.166a.753.753,0,0,0-.736.761v.761a.753.753,0,0,0,.736.761H3.627a.746.746,0,0,0,.736-.761v-.761a.746.746,0,0,0-.736-.761m0,1.521H2.166v-.761H3.627Z" transform="translate(0.141 1.435)" fill="#22292b"/>
    <path id="Path_4980" data-name="Path 4980" d="M3.627,16.59H2.166a.753.753,0,0,0-.736.761v.761a.753.753,0,0,0,.736.761H3.627a.746.746,0,0,0,.736-.761v-.761A.746.746,0,0,0,3.627,16.59Zm0,1.521H2.166v-.761H3.627Z" transform="translate(0.141 1.435)" fill="none" stroke="#22292b" stroke-width="0.2"/>
    <path id="Path_4981" data-name="Path 4981" d="M7.564,16.59h-1.1a.381.381,0,0,0,0,.761h1.1a.381.381,0,0,0,0-.761" transform="translate(0.601 1.435)" fill="#22292b"/>
    <path id="Path_4982" data-name="Path 4982" d="M7.564,16.59h-1.1a.381.381,0,0,0,0,.761h1.1a.381.381,0,0,0,0-.761Z" transform="translate(0.601 1.435)" fill="none" stroke="#22292b" stroke-width="0.2"/>
    <path id="Path_4983" data-name="Path 4983" d="M7.564,17.994h-1.1a.381.381,0,0,0,0,.761h1.1a.381.381,0,0,0,0-.761" transform="translate(0.601 1.557)" fill="#22292b"/>
    <path id="Path_4984" data-name="Path 4984" d="M7.564,17.994h-1.1a.381.381,0,0,0,0,.761h1.1a.381.381,0,0,0,0-.761Z" transform="translate(0.601 1.557)" fill="none" stroke="#22292b" stroke-width="0.2"/>
    <path id="Path_4985" data-name="Path 4985" d="M12.516,16.862a.747.747,0,0,0-.549-.272H10.495a.744.744,0,0,0-.725.761v.761a.744.744,0,0,0,.725.761h1.186a4.591,4.591,0,0,1,.209-.761H10.495v-.761h1.472v.565a4.835,4.835,0,0,1,.549-1.054" transform="translate(0.961 1.435)" fill="#22292b"/>
    <path id="Path_4986" data-name="Path 4986" d="M12.516,16.862a.747.747,0,0,0-.549-.272H10.495a.744.744,0,0,0-.725.761v.761a.744.744,0,0,0,.725.761h1.186a4.591,4.591,0,0,1,.209-.761H10.495v-.761h1.472v.565A4.835,4.835,0,0,1,12.516,16.862Z" transform="translate(0.961 1.435)" fill="none" stroke="#22292b" stroke-width="0.2"/>
    <path id="Path_4987" data-name="Path 4987" d="M22.853,20.191a.494.494,0,0,1-.989,0,4.537,4.537,0,0,0-1.208-3.075,3.98,3.98,0,0,0-.549-.5A4.409,4.409,0,0,0,18,15.693a4.088,4.088,0,0,0-.725-.065h-.022a4.576,4.576,0,0,0-3.262,1.336,4.5,4.5,0,0,0-1.329,2.847,3.3,3.3,0,0,0,0,.761,4.59,4.59,0,0,0,4.6,4.183,4.637,4.637,0,0,0,3.669-1.8.494.494,0,0,1,.373-.163.51.51,0,0,1,.33.12.483.483,0,0,1,.1.608A5.614,5.614,0,0,1,11.7,20.974c-.022-.13-.033-.272-.044-.4a5.832,5.832,0,0,1,.011-.761,3.631,3.631,0,0,1,.11-.771,5.451,5.451,0,0,1,.692-1.749c.1-.141.187-.282.3-.424a5.582,5.582,0,0,1,4.492-2.217h.011a5.841,5.841,0,0,1,2.922.826c.143.087.286.185.417.282a2.473,2.473,0,0,1,.319.272,5.464,5.464,0,0,1,1.922,4.161" transform="translate(1.147 1.267)" fill="#22292b"/>
    <path id="Path_4988" data-name="Path 4988" d="M20.015,20.033a.479.479,0,0,1-.428.445H17.522V22.51a.49.49,0,0,1-.494.489.5.5,0,0,1-.494-.478V20.478H14.479a.417.417,0,0,1-.3-.109.465.465,0,0,1,0-.761.417.417,0,0,1,.3-.109h2.054V17.479a.5.5,0,0,1,.494-.445h.044a.49.49,0,0,1,.45.424V19.5h2.054a.5.5,0,0,1,.439.532" transform="translate(1.376 1.474)" fill="#22292b"/>
  </g>
</svg>
