<svg xmlns="http://www.w3.org/2000/svg" width="23" height="23" viewBox="0 0 23 23">
  <path id="Path_4970" data-name="Path 4970" d="M8.077,12.5A2.654,2.654,0,1,1,5.423,9.846,2.654,2.654,0,0,1,8.077,12.5Zm1.262,2.059a4.423,4.423,0,1,1,0-4.118l6-3.75a4.427,4.427,0,1,1,.728,1.423l-6.246,3.9a4.486,4.486,0,0,1,0,.965l6.246,3.9a4.4,4.4,0,1,1-.728,1.423ZM19.577,8.077a2.654,2.654,0,1,0-2.654-2.654A2.654,2.654,0,0,0,19.577,8.077Zm2.654,11.5a2.654,2.654,0,1,1-2.654-2.654A2.654,2.654,0,0,1,22.231,19.577Z" transform="translate(-1 -1)" fill="#182427" fill-rule="evenodd"/>
</svg>
