<svg xmlns="http://www.w3.org/2000/svg" width="20" height="20" viewBox="0 0 20 20">
  <g id="vuesax_bold_sms" data-name="vuesax/bold/sms" transform="translate(-556 -252)">
    <g id="sms" transform="translate(556 252)">
      <path id="Vector" d="M0,0H20V20H0Z" fill="none" opacity="0"/>
      <path id="Vector-2" data-name="Vector" d="M12.5,0H4.167C1.667,0,0,1.25,0,4.167V10c0,2.917,1.667,4.167,4.167,4.167H12.5c2.5,0,4.167-1.25,4.167-4.167V4.167C16.667,1.25,15,0,12.5,0Zm.392,5.075L10.283,7.158a3.217,3.217,0,0,1-3.9,0L3.775,5.075a.641.641,0,0,1-.1-.883.623.623,0,0,1,.875-.1L7.158,6.175a1.988,1.988,0,0,0,2.342,0l2.608-2.083a.615.615,0,0,1,.875.1A.632.632,0,0,1,12.892,5.075Z" transform="translate(1.667 2.917)" fill="#5e2829"/>
    </g>
  </g>
</svg>
