<svg xmlns="http://www.w3.org/2000/svg" width="76" height="24" viewBox="0 0 76 24">
  <g id="visa" transform="translate(0 -100.23)">
    <g id="Group_310" data-name="Group 310" transform="translate(7.101 100.23)">
      <g id="Group_309" data-name="Group 309" transform="translate(0 0)">
        <path id="Path_1721" data-name="Path 1721" d="M51.226,100.23l-3.814,23.952h6.1L57.32,100.23Zm18.39,9.757c-2.131-1.062-3.437-1.778-3.437-2.864.026-.987,1.1-2,3.513-2a10.527,10.527,0,0,1,4.541.887l.553.249.829-5.011a15.265,15.265,0,0,0-5.472-.987c-6.021,0-10.26,3.159-10.286,7.676-.05,3.334,3.035,5.184,5.344,6.294,2.358,1.138,3.161,1.877,3.161,2.888-.026,1.553-1.907,2.27-3.662,2.27a12.3,12.3,0,0,1-5.721-1.234l-.8-.369-.853,5.208a18.888,18.888,0,0,0,6.8,1.237c6.4,0,10.562-3.111,10.614-7.926C74.757,113.663,73.13,111.64,69.615,109.987ZM91.245,100.3H86.528a3.018,3.018,0,0,0-3.187,1.927l-9.056,21.951h6.4l1.762-4.752H89.6l.914,4.772h5.643Zm-7.025,14.329c.123.012,2.456-7.758,2.456-7.758l1.857,7.758Zm-41.9-14.4L36.344,116.5l-.651-3.209a17.835,17.835,0,0,0-8.431-9.725l5.47,20.589h6.451l9.586-23.925H42.317Z" transform="translate(-27.262 -100.23)" fill="#2394bc"/>
      </g>
    </g>
    <path id="Path_1722" data-name="Path 1722" d="M13.523,103.332a3.99,3.99,0,0,0-3.966-3.084H.1l-.1.443c7.379,1.836,13.573,7.485,15.582,12.8Z" transform="translate(0 -0.013)" fill="#efc75e"/>
  </g>
</svg>
